#!OML:ASF F:\VICON\USERDATA\INSTALL\rory3\rory3.ASF
:FULLY-SPECIFIED
:DEGREES
542
root 1.34388 18.9536 -33.8501 -137.081 -22.9 -206.669
lowerback -17.7392 -8.1065 -14.1774
upperback -13.1295 -12.7803 -7.51414
thorax -4.1763 -7.49945 -2.11661
lowerneck -20.6566 -2.87907 -12.3561
upperneck -20.224 -6.24687 0.351119
head -2.87734 -3.98201 1.99435
rclavicle 4.78077e-014 1.90833e-014
rhumerus -388.366 -41.0348 399.248
rradius 16.1305
rwrist 39.039
rhand 10.072 355.8
rfingers 7.12502
rthumb 35.1947 -30.71
lclavicle 4.78077e-014 1.90833e-014
lhumerus 3.11234 -28.7617 -19.6767
lradius 19.2507
lwrist -43.7006
lhand 20.7396 31.4852
lfingers 7.12502
lthumb 45.2234 54.8962
rfemur 148.188 -199.396 -188.115
rtibia 18.6344
rfoot -46.0146 -32.6137
rtoes 59.4929
lfemur 12.6246 -17.8641 9.96448
ltibia 28.9558
lfoot 22.4314 45.0828
ltoes 26.3027
543
root 1.35222 18.909 -33.9124 -136.842 -21.3948 -207.082
lowerback -19.1345 -8.35655 -15.4915
upperback -12.384 -12.4522 -7.62716
thorax -2.48379 -7.34234 -1.89728
lowerneck -17.8176 -2.51093 -11.0136
upperneck -21.9856 -6.66905 -0.448235
head -3.82619 -4.20083 1.65735
rclavicle 1.63003e-014 8.74653e-015
rhumerus -388.262 -40.3803 396.064
rradius 16.4018
rwrist 34.5553
rhand 9.02113 356.751
rfingers 7.12502
rthumb 34.1973 -29.9886
lclavicle 1.63003e-014 8.74653e-015
lhumerus 1.63585 -31.5004 -17.6457
lradius 18.8504
lwrist -41.1734
lhand 20.1577 31.5523
lfingers 7.12502
lthumb 44.6819 55.1761
rfemur 146.877 -198.534 -188.912
rtibia 20.3006
rfoot -41.8399 -35.1234
rtoes 58.1059
lfemur 11.3081 -18.0404 6.6035
ltibia 28.3936
lfoot 6.3057 49.1343
ltoes 35.3327
544
root 1.31692 18.8852 -33.9236 -138.497 -22.2811 -205.206
lowerback -17.4274 -7.70049 -12.2364
upperback -12.8167 -12.3856 -7.56236
thorax -4.23229 -7.37534 -3.04284
lowerneck -17.3177 -2.37915 -10.485
upperneck -18.7106 -5.51916 -0.280459
head -3.17784 -3.50486 1.62482
rclavicle 6.07287e-014 -1.35174e-014
rhumerus -387.31 -39.741 393.016
rradius 16.4398
rwrist 31.8924
rhand 7.95489 358.923
rfingers 7.12502
rthumb 33.1841 -28.0383
lclavicle 6.07287e-014 -1.35174e-014
lhumerus 0.187588 -32.9284 -15.1247
lradius 18.5899
lwrist -41.3559
lhand 19.5377 31.0999
lfingers 7.12502
lthumb 44.1042 54.9438
rfemur 147.566 -196.789 -185.365
rtibia 21.1506
rfoot -35.309 -37.8324
rtoes 56.043
lfemur 10.2321 -17.7253 7.11717
ltibia 28.4427
lfoot -10.2777 49.2415
ltoes 43.5965
545
root 1.38237 18.7958 -34.0166 -137.475 -18.6168 -206.714
lowerback -19.0506 -7.89822 -16.5409
upperback -12.6034 -11.9904 -7.89607
thorax -2.78533 -7.1392 -1.50244
lowerneck -16.2291 -2.06156 -9.95462
upperneck -17.7785 -4.83862 -0.207934
head -3.02462 -3.09749 1.57588
rclavicle -1.49089e-015 -1.02573e-013
rhumerus -386.937 -40.4413 390.237
rradius 16.4019
rwrist 28.8977
rhand 6.62258 359.354
rfingers 7.12502
rthumb 31.9164 -27.8684
lclavicle -1.49089e-015 -1.02573e-013
lhumerus -1.71683 -32.3443 -12.105
lradius 18.4551
lwrist -41.6055
lhand 19.6743 30.8328
lfingers 7.12502
lthumb 44.2315 54.6288
rfemur 144.828 -198.667 -189.552
rtibia 22.8099
rfoot -37.1314 -36.9395
rtoes 56.5487
lfemur 8.3785 -16.727 1.77511
ltibia 28.0441
lfoot -22.9714 45.9993
ltoes 47.2441
546
root 1.31372 18.7739 -34.0122 -139.364 -20.9326 -204.113
lowerback -18.4222 -7.6223 -11.8676
upperback -11.98 -11.8164 -7.42144
thorax -2.76198 -7.08183 -3.2771
lowerneck -15.574 -1.84771 -9.42411
upperneck -16.5471 -4.26735 -0.256677
head -2.70258 -2.75768 1.46345
rclavicle -8.04581e-014 -2.38542e-014
rhumerus -384.474 -26.6685 381.685
rradius 19.2593
rwrist 10.0203
rhand 4.37358 355.797
rfingers 7.12502
rthumb 29.7723 -31.8317
lclavicle -8.04581e-014 -2.38542e-014
lhumerus -3.38273 -32.4288 -9.06914
lradius 18.1846
lwrist -40.5804
lhand 20.0294 30.6373
lfingers 7.12502
lthumb 44.5624 54.3071
rfemur 145.861 -196.764 -184.448
rtibia 24.065
rfoot -31.4967 -38.2813
rtoes 54.4276
lfemur 6.92357 -15.9257 4.30284
ltibia 28.0498
lfoot -25.3741 43.5873
ltoes 48.0504
